<?xml version="1.0" encoding="UTF-8"?>
<svg id="Layer_1" data-name="Layer 1" xmlns="http://www.w3.org/2000/svg" viewBox="0 0 144 144">
  <defs>
    <style>
      .cls-1 {
        stroke: #28aee4;
      }

      .cls-1, .cls-2 {
        fill: none;
      }

      .cls-1, .cls-2, .cls-3 {
        stroke-linecap: round;
        stroke-miterlimit: 10;
        stroke-width: 2px;
      }

      .cls-2, .cls-3 {
        stroke: #134d65;
      }

      .cls-3 {
        fill: #fff;
      }
    </style>
  </defs>
  <path class="cls-1" d="m66.69,36.71c-2.83-1.92-6.07-3.28-9.56-3.95l-1.26-7.56h-7.16l-1.26,7.56c-3.49.67-6.73,2.03-9.56,3.95l-6.23-4.45-5.06,5.06,4.45,6.23c-1.92,2.83-3.28,6.07-3.95,9.56l-7.56,1.26v7.16l7.56,1.26c.67,3.49,2.03,6.73,3.95,9.56m5.95-5.01c-1.68-2.73-2.65-5.95-2.65-9.39,0-9.91,8.03-17.94,17.94-17.94,9.15,0,16.7,6.85,17.8,15.69"/>
  <g>
    <g>
      <path class="cls-2" d="m62.38,97.24v-24.91c0-2.49,1.32-4.8,3.46-6.06l12.91-7.6v4.38h0c2.69,2.85,7.23,2.85,9.92,0h0v-4.38l12.91,7.6c2.15,1.26,3.46,3.57,3.46,6.06v18.26c0,1.8-1.46,3.27-3.27,3.27h-4.62"/>
      <path class="cls-2" d="m83.13,32.08c-4.68.3-8.22,4.4-8.22,9.09v6.52c0,3.03,1.52,5.13,3.85,6.63v8.73h0c2.69,2.85,7.23,2.85,9.92,0h0v-8.73c2.33-1.51,3.85-3.6,3.85-6.63v-6.82c0-5.06-4.26-9.12-9.39-8.79Z"/>
      <g>
        <path class="cls-2" d="m78.76,54.32s1.15.76,2.91,1.39"/>
        <path class="cls-2" d="m88.68,54.32s-1.15.76-2.91,1.39"/>
      </g>
      <path class="cls-2" d="m75.49,37.75c.79,2.34,3.43,4.9,6.1,4.13,2.37-.68,4.21-5.68,7.09-4.13"/>
      <polyline class="cls-3" points="40.62 85.39 43.49 93.86 86.16 93.86 86.16 90.75 77.53 90.75 71.24 72.15 36.15 72.15 39.01 80.6"/>
      <polyline class="cls-2" points="96.21 75.35 96.21 85.85 79.66 85.85"/>
    </g>
    <path class="cls-2" d="m93.63,54.32h11.12c3.92,0,7.1,3.18,7.1,7.1v32.43"/>
    <g>
      <line class="cls-2" x1="32.12" y1="101.7" x2="32.12" y2="118.8"/>
      <line class="cls-2" x1="119.29" y1="101.7" x2="119.29" y2="118.8"/>
    </g>
    <rect class="cls-3" x="26.95" y="93.86" width="97.51" height="7.85"/>
  </g>
  <path class="cls-1" d="m58.33,53.48c.76,1.15,1.2,2.52,1.2,4,0,4-3.24,7.24-7.24,7.24s-7.24-3.24-7.24-7.24,3.24-7.24,7.24-7.24"/>
  <line class="cls-1" x1="99.45" y1="37.46" x2="99.45" y2="33.67"/>
  <line class="cls-1" x1="105.06" y1="37.2" x2="105.06" y2="30.85"/>
  <line class="cls-1" x1="110.67" y1="36.8" x2="110.67" y2="26.47"/>
  <line class="cls-1" x1="99.45" y1="42.02" x2="119.29" y2="42.02"/>
</svg>