<?xml version="1.0" encoding="UTF-8"?>
<svg id="Layer_1" data-name="Layer 1" xmlns="http://www.w3.org/2000/svg" viewBox="0 0 144 144">
  <defs>
    <style>
      .cls-1, .cls-2 {
        fill: none;
      }

      .cls-1, .cls-2, .cls-3, .cls-4 {
        stroke-linecap: round;
        stroke-miterlimit: 10;
        stroke-width: 2px;
      }

      .cls-1, .cls-3 {
        stroke: #134d65;
      }

      .cls-2, .cls-4 {
        stroke: #44a9df;
      }

      .cls-3, .cls-4 {
        fill: #fff;
      }
    </style>
  </defs>
  <circle class="cls-4" cx="72" cy="59.09" r="24.49"/>
  <circle class="cls-2" cx="72" cy="59.09" r="21"/>
  <g>
    <path class="cls-1" d="m54.07,126c0-3,1.41-5.78,3.8-7.57l7.67-5.68v-6.13l4.65-3.68h3.66l4.65,3.68v6.13l7.64,5.68c2.38,1.79,3.8,4.58,3.8,7.57"/>
    <circle class="cls-3" cx="72.01" cy="99.8" r="10.17" transform="translate(-51.03 102.41) rotate(-55.4)"/>
    <polyline class="cls-1" points="65.54 112.74 72.01 123.03 78.49 112.74"/>
  </g>
  <g>
    <g>
      <path class="cls-1" d="m86.13,118.43c0-2.4,1.14-4.64,3.05-6.08l6.15-4.56v-4.92l3.73-2.95h2.93l3.73,2.95v4.92l6.13,4.56c1.91,1.44,3.05,3.67,3.05,6.08"/>
      <path class="cls-3" d="m108.68,97.4c0,4.51-3.65,8.16-8.16,8.16s-8.16-3.65-8.16-8.16,3.65-8.16,8.16-8.16,8.16,3.65,8.16,8.16Z"/>
      <polyline class="cls-1" points="95.33 107.79 100.52 116.04 105.72 107.79"/>
    </g>
    <g>
      <path class="cls-1" d="m29.1,118.43c0-2.4,1.14-4.64,3.05-6.08l6.15-4.56v-4.92l3.73-2.95h2.93l3.73,2.95v4.92l6.13,4.56c1.91,1.44,3.05,3.67,3.05,6.08"/>
      <path class="cls-3" d="m51.65,97.4c0,4.51-3.65,8.16-8.16,8.16s-8.16-3.65-8.16-8.16,3.65-8.16,8.16-8.16,8.16,3.65,8.16,8.16Z"/>
      <polyline class="cls-1" points="38.3 107.79 43.49 116.04 48.69 107.79"/>
    </g>
  </g>
  <g>
    <path class="cls-2" d="m66.08,65.41c2.29,4.34,12.74,3.85,11.71-2.19-.27-1.56-1.35-2.59-2.69-3.25-2.51-1.24-4.34-.53-6.83-2.11-1.04-.66-1.83-1.59-2.06-2.89-1.03-6.03,9.42-6.52,11.71-2.18"/>
    <g>
      <line class="cls-2" x1="72" y1="49.93" x2="72" y2="46.31"/>
      <line class="cls-2" x1="72" y1="71.88" x2="72" y2="68.26"/>
    </g>
  </g>
  <path class="cls-1" d="m58,87.09c-7.02-3.52-12.53-9.6-15.31-17.01"/>
  <g>
    <line class="cls-1" x1="50.75" y1="37.02" x2="42.94" y2="29.21"/>
    <line class="cls-1" x1="93.25" y1="37.02" x2="101.06" y2="29.21"/>
  </g>
  <line class="cls-1" x1="72" y1="29.21" x2="72" y2="18"/>
  <g>
    <line class="cls-1" x1="43.21" y1="57.23" x2="32.27" y2="57.23"/>
    <line class="cls-1" x1="111.73" y1="57.23" x2="100.79" y2="57.23"/>
  </g>
  <g>
    <circle class="cls-4" cx="92.36" cy="74.34" r="11.33" transform="translate(.77 149.62) rotate(-78.25)"/>
    <g>
      <path class="cls-4" d="m89.16,77.74c1.23,2.34,6.87,2.07,6.32-1.18-.14-.84-.73-1.39-1.45-1.75-1.35-.67-2.34-.29-3.68-1.14-.56-.35-.99-.86-1.11-1.56-.56-3.25,5.08-3.52,6.32-1.18"/>
      <g>
        <line class="cls-4" x1="92.36" y1="69.39" x2="92.36" y2="67.44"/>
        <line class="cls-4" x1="92.36" y1="81.23" x2="92.36" y2="79.28"/>
      </g>
    </g>
  </g>
</svg>