<?xml version="1.0" encoding="UTF-8"?>
<svg id="Layer_1" data-name="Layer 1" xmlns="http://www.w3.org/2000/svg" viewBox="0 0 144 144">
  <defs>
    <style>
      .cls-1 {
        fill: none;
      }

      .cls-1, .cls-2, .cls-3 {
        stroke-linecap: round;
        stroke-miterlimit: 10;
        stroke-width: 2px;
      }

      .cls-1, .cls-3 {
        stroke: #134d65;
      }

      .cls-2 {
        stroke: #28aee4;
      }

      .cls-2, .cls-3 {
        fill: #fff;
      }
    </style>
  </defs>
  <path class="cls-3" d="m96.21,31.67h11.1c1.17,0,2.11.95,2.11,2.11v67.65c0,1.17-.95,2.11-2.11,2.11h-59.55c-1.17,0-2.11-.95-2.11-2.11V33.78c0-1.17.95-2.11,2.11-2.11h42.11"/>
  <line class="cls-1" x1="98.15" y1="45.15" x2="109.42" y2="45.15"/>
  <line class="cls-1" x1="45.65" y1="45.15" x2="71.82" y2="45.15"/>
  <g>
    <circle class="cls-1" cx="53.93" cy="38.41" r="2.11"/>
    <circle class="cls-1" cx="63.09" cy="38.41" r="2.11"/>
  </g>
  <path class="cls-3" d="m37.61,126h-7.93c-1.17,0-2.11-.95-2.11-2.11V56.23c0-1.17.95-2.11,2.11-2.11h59.55c1.17,0,2.11.95,2.11,2.11v67.65c0,1.17-.95,2.11-2.11,2.11h-46.34"/>
  <line class="cls-1" x1="27.56" y1="67.61" x2="91.34" y2="67.61"/>
  <g>
    <path class="cls-1" d="m37.96,60.86c0,1.17-.95,2.11-2.11,2.11s-2.11-.95-2.11-2.11.95-2.11,2.11-2.11,2.11.95,2.11,2.11Z"/>
    <path class="cls-1" d="m47.12,60.86c0,1.17-.95,2.11-2.11,2.11s-2.11-.95-2.11-2.11.95-2.11,2.11-2.11,2.11.95,2.11,2.11Z"/>
    <path class="cls-1" d="m56.28,60.86c0,1.17-.95,2.11-2.11,2.11s-2.11-.95-2.11-2.11.95-2.11,2.11-2.11,2.11.95,2.11,2.11Z"/>
  </g>
  <g>
    <polygon class="cls-2" points="82.39 99.02 74.22 99 74.2 90.83 104.76 60.27 112.95 68.46 82.39 99.02"/>
    <path class="cls-2" d="m114.74,58.48h0c-2.26-2.26-5.93-2.26-8.19,0l-1.79,1.79,8.19,8.19,1.79-1.79c2.26-2.26,2.26-5.93,0-8.19Z"/>
  </g>
  <g>
    <rect class="cls-1" x="33.73" y="93.21" width="6.98" height="10.33"/>
    <rect class="cls-1" x="46.04" y="84.64" width="6.98" height="18.91"/>
    <rect class="cls-1" x="58.34" y="76.08" width="6.98" height="27.46"/>
  </g>
  <line class="cls-1" x1="33.73" y1="103.55" x2="78.73" y2="103.55"/>
  <line class="cls-1" x1="65.32" y1="111.8" x2="81.88" y2="111.8"/>
  <line class="cls-1" x1="65.32" y1="117.24" x2="81.88" y2="117.24"/>
  <g>
    <line class="cls-1" x1="83.62" y1="28.34" x2="81.3" y2="28.34"/>
    <line class="cls-1" x1="83.62" y1="41.65" x2="81.3" y2="41.65"/>
  </g>
  <g>
    <path class="cls-2" d="m97.37,21.55c3.2,2.73,5.23,6.79,5.23,11.32,0,8.21-6.66,14.87-14.87,14.87s-14.87-6.66-14.87-14.87,6.66-14.87,14.87-14.87c2.57,0,4.99.65,7.1,1.8"/>
    <g>
      <path class="cls-2" d="m83.24,37.66c1.73,3.29,9.68,2.92,8.89-1.66-.2-1.19-1.03-1.96-2.04-2.47-1.9-.94-3.29-.4-5.18-1.6-.79-.5-1.39-1.21-1.56-2.2-.79-4.58,7.16-4.95,8.89-1.66"/>
      <line class="cls-2" x1="87.73" y1="42.58" x2="87.73" y2="39.83"/>
      <line class="cls-2" x1="87.73" y1="25.91" x2="87.73" y2="23.16"/>
    </g>
  </g>
</svg>