<?xml version="1.0" encoding="UTF-8"?>
<svg id="Layer_1" data-name="Layer 1" xmlns="http://www.w3.org/2000/svg" viewBox="0 0 144 144">
  <defs>
    <style>
      .cls-1 {
        fill: none;
      }

      .cls-1, .cls-2 {
        stroke: #134d65;
      }

      .cls-1, .cls-2, .cls-3 {
        stroke-linecap: round;
        stroke-miterlimit: 10;
        stroke-width: 2px;
      }

      .cls-2, .cls-3 {
        fill: #fff;
      }

      .cls-3 {
        stroke: #44a9df;
      }
    </style>
  </defs>
  <circle class="cls-2" cx="72" cy="114.52" r="11.48" transform="translate(-53.72 164.45) rotate(-79.5)"/>
  <path class="cls-2" d="m47.14,88.7h49.73v19.27c0,3.62-2.94,6.55-6.55,6.55h-36.62c-3.62,0-6.55-2.94-6.55-6.55v-19.27h0Z"/>
  <path class="cls-1" d="m95.25,27.4c8.55,8.08,12.51,20.76,10.68,33.99-1.3,9.41-4.6,18.62-9.07,27.31h-49.73c-4.47-8.69-7.76-17.9-9.07-27.31-.36-2.62-.5-5.21-.42-7.75"/>
  <path class="cls-1" d="m38.34,47.23c2.96-16.07,15.08-28.65,33.66-28.65,6.62,0,12.41,1.6,17.27,4.38"/>
  <g>
    <g>
      <line class="cls-1" x1="47.14" y1="97.2" x2="60.52" y2="97.2"/>
      <line class="cls-2" x1="47.14" y1="106.14" x2="60.52" y2="106.14"/>
    </g>
    <g>
      <line class="cls-1" x1="83.48" y1="97.2" x2="90.17" y2="97.2"/>
      <line class="cls-1" x1="83.48" y1="106.14" x2="96.86" y2="106.14"/>
    </g>
  </g>
  <g>
    <circle class="cls-3" cx="72" cy="61.35" r="21.57" transform="translate(.98 123.83) rotate(-81.77)"/>
    <g>
      <path class="cls-3" d="m79.34,53.52c-2.83-5.38-15.8-4.77-14.52,2.71.33,1.94,1.68,3.21,3.34,4.03,3.11,1.54,5.38.66,8.47,2.61,1.29.81,2.27,1.97,2.55,3.59,1.28,7.48-11.69,8.09-14.52,2.71"/>
      <line class="cls-3" x1="72" y1="45.49" x2="72" y2="49.98"/>
    </g>
  </g>
  <path class="cls-3" d="m51.18,18.01s10.82,33.49,29.47,17.54c0,0,12.16-17.89-29.47-17.54Z"/>
  <path class="cls-3" d="m93.57,59.78s0-22.58-26.43-33.23"/>
</svg>