<?xml version="1.0" encoding="UTF-8"?>
<svg id="Layer_1" data-name="Layer 1" xmlns="http://www.w3.org/2000/svg" viewBox="0 0 144 144">
  <defs>
    <style>
      .cls-1 {
        stroke: #28aee4;
      }

      .cls-1, .cls-2 {
        fill: none;
        stroke-linecap: round;
        stroke-miterlimit: 10;
        stroke-width: 2px;
      }

      .cls-2 {
        stroke: #134d65;
      }
    </style>
  </defs>
  <g>
    <line class="cls-2" x1="85.04" y1="69.84" x2="85.04" y2="100.33"/>
    <g>
      <path class="cls-2" d="m62.9,69.84c0-2.48,4.96-4.48,11.07-4.48s11.07,2.01,11.07,4.48-4.96,4.48-11.07,4.48-11.07-2.01-11.07-4.48Z"/>
      <line class="cls-2" x1="62.9" y1="69.84" x2="62.9" y2="100.33"/>
      <path class="cls-2" d="m85.04,77.46c0,2.48-4.96,4.48-11.07,4.48s-11.07-2.01-11.07-4.48"/>
      <path class="cls-2" d="m85.04,85.08c0,2.48-4.96,4.48-11.07,4.48s-11.07-2.01-11.07-4.48"/>
      <path class="cls-2" d="m85.04,92.71c0,2.48-4.96,4.48-11.07,4.48s-11.07-2.01-11.07-4.48"/>
      <path class="cls-2" d="m85.04,100.33c0,2.48-4.96,4.48-11.07,4.48s-11.07-2.01-11.07-4.48"/>
    </g>
  </g>
  <g>
    <polyline class="cls-1" points="54.52 85.08 54.52 92.71 54.52 100.33"/>
    <g>
      <path class="cls-1" d="m32.37,85.08c0-2.48,4.96-4.48,11.07-4.48s11.07,2.01,11.07,4.48-4.96,4.48-11.07,4.48-11.07-2.01-11.07-4.48Z"/>
      <polyline class="cls-1" points="32.36 85.08 32.36 92.71 32.36 100.33"/>
      <path class="cls-1" d="m54.51,92.71c0,2.48-4.96,4.48-11.07,4.48s-11.07-2.01-11.07-4.48"/>
      <path class="cls-1" d="m54.51,100.33c0,2.48-4.96,4.48-11.07,4.48s-11.07-2.01-11.07-4.48"/>
    </g>
  </g>
  <g>
    <g>
      <line class="cls-1" x1="115.57" y1="54.6" x2="115.57" y2="85.08"/>
      <g>
        <path class="cls-1" d="m93.43,54.6c0-2.48,4.96-4.48,11.07-4.48s11.07,2.01,11.07,4.48-4.95,4.48-11.07,4.48-11.07-2.01-11.07-4.48Z"/>
        <line class="cls-1" x1="93.43" y1="54.6" x2="93.43" y2="85.08"/>
        <path class="cls-1" d="m115.57,62.22c0,2.48-4.95,4.48-11.07,4.48s-11.07-2.01-11.07-4.48"/>
        <path class="cls-1" d="m115.57,69.84c0,2.48-4.95,4.48-11.07,4.48s-11.07-2.01-11.07-4.48"/>
        <path class="cls-1" d="m115.57,77.46c0,2.48-4.95,4.48-11.07,4.48s-11.07-2.01-11.07-4.48"/>
        <path class="cls-1" d="m115.57,85.08c0,2.48-4.95,4.48-11.07,4.48s-11.07-2.01-11.07-4.48"/>
      </g>
    </g>
    <g>
      <polyline class="cls-1" points="115.57 85.08 115.57 92.71 115.57 100.33"/>
      <g>
        <polyline class="cls-1" points="93.42 85.08 93.42 92.71 93.42 100.33"/>
        <path class="cls-1" d="m115.57,92.71c0,2.48-4.96,4.48-11.07,4.48s-11.07-2.01-11.07-4.48"/>
        <path class="cls-1" d="m115.57,100.33c0,2.48-4.96,4.48-11.07,4.48s-11.07-2.01-11.07-4.48"/>
      </g>
    </g>
  </g>
  <polyline class="cls-2" points="20.82 27.34 20.82 112.97 129.01 112.97"/>
  <polyline class="cls-2" points="122.94 107.14 128.77 112.97 122.94 118.8"/>
  <polyline class="cls-2" points="14.99 33.17 20.82 27.34 26.65 33.17"/>
  <line class="cls-1" x1="32.37" y1="70.94" x2="115.72" y2="27.18"/>
  <polyline class="cls-1" points="111.45 34.69 116.83 27.18 107.82 25.2"/>
</svg>