<?xml version="1.0" encoding="UTF-8"?>
<svg id="Layer_1" data-name="Layer 1" xmlns="http://www.w3.org/2000/svg" viewBox="0 0 144 144">
  <defs>
    <style>
      .cls-1 {
        stroke: #134d65;
      }

      .cls-1, .cls-2 {
        fill: #fff;
        stroke-linecap: round;
        stroke-miterlimit: 10;
        stroke-width: 2px;
      }

      .cls-2 {
        stroke: #44a9df;
      }
    </style>
  </defs>
  <g>
    <path class="cls-1" d="m46.28,73.26c-4.93-1.78-9.78-2.3-13.89.36,2.06-7.63,9.1-13.56,17.09-15.55,10.99-2.72,21.52,2.29,24.85,13.88,2.26,7.89-.87,15.15-12.71,9-3-1.56-6.32-3.52-9.72-5.23"/>
    <path class="cls-1" d="m51.64,63.67s24.05-.84,24.03,37.48"/>
  </g>
  <g>
    <path class="cls-1" d="m117.59,78.67c-1.46-5.97-6.8-10.71-12.97-12.4-8.48-2.32-16.76,1.37-19.56,10.3-1.91,6.09.39,11.78,9.7,7.23,7.04-3.44,16.3-9.59,22.83-5.14Z"/>
    <path class="cls-1" d="m102.83,70.58s-18.65-1.11-19.37,28.64"/>
  </g>
  <path class="cls-1" d="m102.86,103.7l-8.78-.16c-22.46,12.86-42.61-2.35-53.62-7.9-5.12-2.58-14.81-8.22-18.82-4.21-4.78,4.78,7.22,10.59,8.9,11.61,13.74,8.39,23.64,16.16,34.96,19.29,16.76,4.64,24.22-3.13,38.55-1.26,4.93.64,9.71,2.34,15.93,4.93"/>
  <path class="cls-1" d="m121.46,104.13c-4.86-.57-10.63.12-14.64-2.71-8.16-5.75-15.53-13.14-35.82-4.03-1.5.67-3.16,1.25-5.29,1.47-4.78.51-9.86-1.11-13.83-1.53-8.52-.9-10.16,9.19,1.36,10,3.96.28,7.92.7,11.81,1.5,3.69.76,7.22,2.09,10.93,2.78,2.43.45,5.03.42,7.26-.65"/>
  <path class="cls-1" d="m26.36,100.6s3.33-2.85.15-5.85"/>
  <line class="cls-1" x1="79.42" y1="94.32" x2="79.42" y2="35.33"/>
  <g>
    <path class="cls-2" d="m91.41,45.83c-3.06,3.44-7.52,5.6-12.48,5.6-9.23,0-16.71-7.48-16.71-16.71s7.48-16.71,16.71-16.71,16.71,7.48,16.71,16.71c0,2.6-.59,5.06-1.65,7.25"/>
    <g>
      <path class="cls-2" d="m83.61,29.73c-1.81-3.43-10.07-3.04-9.26,1.73.21,1.23,1.07,2.04,2.13,2.57,1.98.98,3.43.42,5.4,1.67.82.52,1.45,1.26,1.63,2.29.82,4.77-7.45,5.16-9.26,1.73"/>
      <line class="cls-2" x1="78.93" y1="24.6" x2="78.93" y2="27.46"/>
      <line class="cls-2" x1="78.93" y1="41.96" x2="78.93" y2="44.82"/>
    </g>
  </g>
  <g>
    <circle class="cls-2" cx="45.04" cy="49.66" r="11.23"/>
    <g>
      <path class="cls-2" d="m48.19,46.31c-1.21-2.31-6.77-2.04-6.22,1.16.14.83.72,1.37,1.43,1.73,1.33.66,2.31.28,3.63,1.12.55.35.97.84,1.09,1.54.55,3.21-5.01,3.47-6.22,1.16"/>
      <line class="cls-2" x1="45.04" y1="42.86" x2="45.04" y2="44.79"/>
      <line class="cls-2" x1="45.04" y1="54.53" x2="45.04" y2="56.46"/>
    </g>
  </g>
  <g>
    <circle class="cls-2" cx="112.25" cy="85.46" r="11.23"/>
    <g>
      <path class="cls-2" d="m115.4,82.1c-1.21-2.31-6.77-2.04-6.22,1.16.14.83.72,1.37,1.43,1.73,1.33.66,2.31.28,3.63,1.12.55.35.97.84,1.09,1.54.55,3.21-5.01,3.47-6.22,1.16"/>
      <line class="cls-2" x1="112.25" y1="78.66" x2="112.25" y2="80.58"/>
      <line class="cls-2" x1="112.25" y1="90.33" x2="112.25" y2="92.25"/>
    </g>
  </g>
</svg>