<?xml version="1.0" encoding="UTF-8"?>
<svg id="Layer_1" data-name="Layer 1" xmlns="http://www.w3.org/2000/svg" viewBox="0 0 144 144">
  <defs>
    <style>
      .cls-1 {
        stroke: #28aee4;
      }

      .cls-1, .cls-2 {
        fill: none;
        stroke-linecap: round;
        stroke-miterlimit: 10;
        stroke-width: 2px;
      }

      .cls-2 {
        stroke: #134d65;
      }
    </style>
  </defs>
  <rect class="cls-2" x="38.34" y="19.25" width="74.65" height="101.61"/>
  <g>
    <path class="cls-2" d="m55.39,83.07v-9.83l-4.8-7.82-4.8,7.82v36.57c0,1.21.98,2.2,2.2,2.2h5.21c1.21,0,2.2-.98,2.2-2.2v-22.12"/>
    <line class="cls-2" x1="45.79" y1="102.14" x2="55.39" y2="102.14"/>
    <line class="cls-2" x1="45.79" y1="73.24" x2="55.39" y2="73.24"/>
  </g>
  <g>
    <path class="cls-2" d="m58.19,56.06c-.22-1.31-.33-2.66-.33-4.04,0-3.37.67-6.58,1.88-9.5l10.45,6.29c-.26,1.03-.4,2.1-.4,3.21,0,7.1,5.75,12.85,12.85,12.85h.02l3.5,11.68c-1.15.17-2.33.25-3.52.25-10.62,0-19.68-6.68-23.2-16.07"/>
    <path class="cls-2" d="m102.88,57.53l3.84.35c-1.77,7.35-6.83,13.41-13.52,16.57l-3.51-11.69c2.18-1.43,3.9-3.51,4.88-5.97l3.63.33"/>
    <path class="cls-2" d="m107.38,50.56l-12.14-1.09c-.23-1.17-.63-2.29-1.16-3.32l8.8-8.44c2.6,3.67,4.23,8.08,4.5,12.85Z"/>
    <path class="cls-2" d="m72.01,29.63c3.22-1.53,6.83-2.39,10.63-2.39,5.7,0,10.96,1.93,15.15,5.17l-8.8,8.44c-1.87-1.07-4.04-1.68-6.34-1.68-3.33,0-6.38,1.27-8.66,3.35l-10.44-6.29c1.24-1.5,2.65-2.84,4.2-4.01"/>
  </g>
  <rect class="cls-1" x="67.37" y="99.61" width="8.29" height="12.39"/>
  <rect class="cls-2" x="80.66" y="90.56" width="8.29" height="21.45"/>
  <rect class="cls-1" x="93.95" y="82.57" width="8.29" height="29.43"/>
  <polyline class="cls-1" points="31.95 25.64 31.95 127.25 106.6 127.25"/>
</svg>