<?xml version="1.0" encoding="UTF-8"?>
<svg id="Layer_2" data-name="Layer 2" xmlns="http://www.w3.org/2000/svg" viewBox="0 0 360 108">
  <defs>
    <style>
      .cls-1 {
        fill: #fff;
        stroke-width: 0px;
      }
    </style>
  </defs>
  <path class="cls-1" d="m104.89,24.95h27.14v7.38h-18.56v13.37h15.63v7.38h-15.63v19.09h-8.58V24.95Z"/>
  <path class="cls-1" d="m138.75,38.26h8.45v33.92h-8.45v-33.92Z"/>
  <path class="cls-1" d="m156.51,38.26h8.11v3.92c0,1.26-.13,2.33-.13,2.33h.13c1.46-2.86,5.19-7.05,12.04-7.05,7.52,0,11.77,3.92,11.77,12.9v21.82h-8.38v-20.09c0-4.12-1.06-6.92-5.39-6.92s-7.85,2.86-9.11,6.92c-.47,1.4-.6,2.93-.6,4.52v15.56h-8.45v-33.92Z"/>
  <path class="cls-1" d="m200,32.34h-15.5v-7.38h39.58v7.38h-15.5v39.84h-8.58v-39.84Z"/>
  <path class="cls-1" d="m234.18,37.46c9.78,0,15.03,7.12,15.03,16.1,0,1-.2,3.26-.2,3.26h-23.41c.53,5.92,5.12,8.98,10.18,8.98,5.45,0,9.78-3.72,9.78-3.72l3.26,6.05s-5.19,4.86-13.63,4.86c-11.24,0-18.22-8.11-18.22-17.76,0-10.44,7.12-17.76,17.23-17.76Zm6.52,13.57c-.13-4.59-2.99-7.05-6.72-7.05-4.32,0-7.32,2.66-8.12,7.05h14.83Z"/>
  <path class="cls-1" d="m289.71,38.26h8.11v3.92c0,1.26-.13,2.33-.13,2.33h.13c1.66-3.33,5.72-7.05,11.04-7.05s8.51,2.39,9.91,6.98h.13c1.86-3.66,6.25-6.98,11.57-6.98,7.05,0,11.11,3.99,11.11,12.9v21.82h-8.45v-20.22c0-3.86-.73-6.78-4.66-6.78-4.32,0-7.18,3.46-8.18,7.72-.33,1.33-.4,2.79-.4,4.39v14.9h-8.45v-20.22c0-3.66-.6-6.78-4.59-6.78-4.39,0-7.25,3.46-8.31,7.78-.33,1.26-.4,2.79-.4,4.32v14.9h-8.45v-33.92Z"/>
  <path class="cls-1" d="m275.22,39.06h-.01c-2.52-1.28-5.5-2-8.85-2-8.44,0-13.63,4.85-13.63,4.85l3.26,6.05s1.12-.97,2.95-1.92c1.75-.91,4.15-1.8,6.82-1.8,1.94,0,3.82.45,5.42,1.35,1.71.95,3.1,2.4,3.94,4.33h-.07c-5.83,0-21.2.77-21.2,12.15,0,7.16,5.76,11.16,12.15,11.16,8.14,0,10.95-6.32,10.88-6.32v-16.13h0v21.45h7.72v-17.43c0-6.76-3.44-12.77-9.37-15.75Zm1.09,17.82c0,4.35-3.37,9.41-8.07,9.41-3.65,0-5.41-2.25-5.41-4.63,0-4.99,7.37-5.62,11.94-5.62h1.54v.84Z"/>
  <path class="cls-1" d="m138.79,25.91v-.96h8.36v9.32h0c-4.61,0-8.36-3.74-8.36-8.36Z"/>
  <g>
    <path class="cls-1" d="m73.11,25.19v-14.33H31.29v61.28h16.71V25.19h25.11Z"/>
    <polygon class="cls-1" points="18.63 37.52 28.56 47.44 18.41 57.59 18.63 37.52"/>
    <polygon class="cls-1" points="67.1 38.88 67.07 41.87 85.75 41.87 85.75 53.19 69.04 53.19 69.04 94.14 55.33 94.14 55.47 53.36 53.83 55 52.43 56.4 52.32 97.14 72.04 97.14 72.04 56.19 88.75 56.19 88.75 38.87 67.1 38.88"/>
    <polygon class="cls-1" points="63.77 38.87 50.07 38.87 63.96 52.79 64.1 38.88 63.96 38.88 63.77 38.87"/>
  </g>
</svg>