<?xml version="1.0" encoding="UTF-8"?>
<svg id="Layer_2" data-name="Layer 2" xmlns="http://www.w3.org/2000/svg" viewBox="0 0 144 144">
  <defs>
    <style>
      .cls-1 {
        fill: #fff;
        stroke-width: 0px;
      }
    </style>
  </defs>
  <path class="cls-1" d="m91.53,43.19v-14.33h-41.82v61.28h16.71v-46.95h25.11Z"/>
  <polygon class="cls-1" points="37.05 55.52 46.98 65.44 36.83 75.59 37.05 55.52"/>
  <polygon class="cls-1" points="85.52 56.88 85.49 59.87 104.17 59.87 104.17 71.19 87.46 71.19 87.46 112.14 73.75 112.14 73.89 71.36 72.25 73 70.85 74.4 70.74 115.14 90.46 115.14 90.46 74.19 107.17 74.19 107.17 56.87 85.52 56.88"/>
  <polygon class="cls-1" points="82.19 56.87 68.49 56.87 82.38 70.79 82.52 56.88 82.38 56.88 82.19 56.87"/>
</svg>